<svg width="28" height="28" viewBox="0 0 28 28" fill="none" xmlns="http://www.w3.org/2000/svg">
<path d="M7.00016 16.333H16.3335V13.9997H7.00016V16.333ZM7.00016 12.833H21.0002V10.4997H7.00016V12.833ZM7.00016 9.33301H21.0002V6.99967H7.00016V9.33301ZM2.3335 25.6663V4.66634C2.3335 4.02467 2.56197 3.47537 3.01891 3.01842C3.47586 2.56148 4.02516 2.33301 4.66683 2.33301H23.3335C23.9752 2.33301 24.5245 2.56148 24.9814 3.01842C25.4384 3.47537 25.6668 4.02467 25.6668 4.66634V18.6663C25.6668 19.308 25.4384 19.8573 24.9814 20.3143C24.5245 20.7712 23.9752 20.9997 23.3335 20.9997H7.00016L2.3335 25.6663ZM6.0085 18.6663H23.3335V4.66634H4.66683V19.9788L6.0085 18.6663Z" fill="#F5F5F0"/>
</svg>
